<svg width="79" height="61" viewBox="0 0 79 61" fill="none" xmlns="http://www.w3.org/2000/svg">
<rect width="29.1908" height="45.8104" rx="1" transform="matrix(0.894317 0.447433 -0.398599 0.917125 51.8653 4.66821)" fill="#FFFAFA" stroke="#585858"/>
<path d="M52.5601 33.7425L52.628 33.5862C53.3659 31.9358 54.109 30.7004 54.8574 29.8801C55.6057 29.0597 56.4084 28.4938 57.2655 28.1825C58.1225 27.8711 59.0774 27.6668 60.13 27.5697C60.7656 27.507 61.3748 27.3625 61.9578 27.136C62.5446 26.9009 63.075 26.5583 63.549 26.1082C64.0315 25.6623 64.4218 25.0963 64.72 24.4102C65.0899 23.5591 65.216 22.7234 65.0982 21.9032C64.9804 21.083 64.6691 20.3404 64.1642 19.6754C63.6593 19.0105 63.0088 18.4789 62.2127 18.0806C61.5182 17.7331 60.785 17.5461 60.0131 17.5193C59.2411 17.4926 58.5014 17.6882 57.7939 18.1061C57.0864 18.524 56.4761 19.2284 55.963 20.2193L52.7617 18.6177C53.4712 17.1752 54.393 16.098 55.5272 15.3861C56.67 14.6784 57.921 14.3263 59.2805 14.3297C60.6485 14.3374 62.0184 14.6845 63.3904 15.3709C64.8809 16.1166 66.0445 17.0689 66.8813 18.2276C67.7265 19.3906 68.2195 20.6523 68.3603 22.0127C68.5095 23.3773 68.2897 24.7371 67.7009 26.0919C67.2857 27.0472 66.7661 27.8394 66.1423 28.4682C65.5268 29.1014 64.8203 29.5885 64.0225 29.9295C63.2332 30.2747 62.364 30.4954 61.4149 30.5915C60.462 30.6963 59.646 30.9013 58.9669 31.2065C58.2916 31.5031 57.6957 31.9609 57.1791 32.5801C56.6626 33.1992 56.1618 34.043 55.6768 35.1115L55.6089 35.2678L52.5601 33.7425ZM50.8342 42.2682C50.2075 41.9546 49.7698 41.4554 49.521 40.7706C49.2722 40.0857 49.2875 39.4219 49.5668 38.7793C49.8461 38.1366 50.3102 37.6974 50.9591 37.4616C51.608 37.2259 52.2458 37.2648 52.8725 37.5783C53.4992 37.8919 53.937 38.3911 54.1858 39.076C54.4346 39.7608 54.4193 40.4246 54.14 41.0673C53.955 41.4928 53.6793 41.8307 53.3128 42.0808C52.9548 42.3352 52.555 42.4841 52.1134 42.5275C51.6841 42.5665 51.2577 42.48 50.8342 42.2682Z" fill="#585858"/>
<rect width="29.4601" height="45.4209" rx="1" transform="matrix(0.815379 -0.578928 0.524964 0.851125 2.64937 21.3507)" fill="#FFFAFA" stroke="#585858"/>
<path d="M26.1619 36.197L26.0724 36.0519C25.1383 34.5015 24.5371 33.1668 24.2688 32.0477C24.0005 30.9286 23.9625 29.8951 24.1551 28.9471C24.3476 27.9992 24.6755 27.0188 25.1389 26.006C25.4155 25.3924 25.6135 24.7593 25.7328 24.1067C25.8471 23.446 25.847 22.7797 25.7323 22.1078C25.6254 21.4304 25.3755 20.7733 24.9828 20.1366C24.4956 19.3467 23.8955 18.7877 23.1824 18.4596C22.4693 18.1315 21.7185 18.0213 20.9301 18.1291C20.1416 18.2369 19.3845 18.5485 18.6587 19.0638C18.0256 19.5134 17.5001 20.0835 17.0823 20.7742C16.6645 21.4649 16.4401 22.2442 16.4092 23.1122C16.3783 23.9801 16.6253 24.9116 17.1502 25.9065L14.2315 27.9788C13.4481 26.5648 13.0646 25.1508 13.0807 23.737C13.1047 22.3177 13.4671 20.9883 14.1682 19.7488C14.877 18.5038 15.8568 17.4373 17.1077 16.5491C18.4666 15.5843 19.822 15.0276 21.1738 14.8791C22.5333 14.7251 23.7904 14.9451 24.9451 15.5392C26.1075 16.1278 27.0765 17.0507 27.852 18.3081C28.3988 19.1947 28.7622 20.0898 28.9421 20.9936C29.1298 21.8918 29.1543 22.7957 29.0159 23.7053C28.8852 24.6094 28.6143 25.5203 28.2032 26.4379C27.7972 27.3637 27.5411 28.2176 27.4352 28.9999C27.3242 29.774 27.3824 30.5614 27.6097 31.3619C27.837 32.1624 28.2511 33.0679 28.8521 34.0783L28.9416 34.2234L26.1619 36.197ZM32.0589 42.3016C31.4875 42.7073 30.8654 42.8418 30.1927 42.7052C29.52 42.5686 28.9997 42.2021 28.6319 41.6056C28.264 41.0092 28.1529 40.3521 28.2987 39.6344C28.4444 38.9167 28.803 38.3549 29.3744 37.9493C29.9458 37.5436 30.5678 37.409 31.2405 37.5456C31.9132 37.6823 32.4335 38.0488 32.8014 38.6452C33.045 39.0401 33.1722 39.4714 33.183 39.9389C33.2015 40.4009 33.1146 40.8451 32.9223 41.2713C32.7327 41.6841 32.4449 42.0275 32.0589 42.3016Z" fill="#585858"/>
<rect x="26.4042" y="5.61974" width="28.8046" height="47.3772" rx="1" fill="#FFFAFA" stroke="#585858"/>
<path d="M38.6481 33.2186V33.0481C38.6671 31.2394 38.8565 29.8 39.2163 28.7299C39.5762 27.6598 40.0875 26.7934 40.7504 26.1305C41.4133 25.4676 42.2087 24.8568 43.1368 24.2981C43.6955 23.9572 44.1974 23.5547 44.6424 23.0907C45.0875 22.6172 45.4379 22.0727 45.6936 21.4572C45.9587 20.8417 46.0913 20.1598 46.0913 19.4117C46.0913 18.4837 45.8735 17.6788 45.4379 16.997C45.0023 16.3152 44.4199 15.7896 43.6907 15.4203C42.9616 15.0509 42.1519 14.8663 41.2618 14.8663C40.4852 14.8663 39.7371 15.0273 39.0174 15.3492C38.2977 15.6712 37.6964 16.1778 37.2135 16.8691C36.7305 17.5604 36.4512 18.4648 36.3754 19.5822H32.7958C32.8716 17.9723 33.2883 16.5945 34.0458 15.4487C34.8129 14.3028 35.8214 13.4269 37.0714 12.8208C38.3309 12.2148 39.7277 11.9117 41.2618 11.9117C42.9284 11.9117 44.3773 12.2432 45.6084 12.9061C46.8489 13.5689 47.8053 14.478 48.4777 15.6333C49.1595 16.7886 49.5004 18.1049 49.5004 19.5822C49.5004 20.6239 49.3394 21.5661 49.0174 22.4089C48.7049 23.2517 48.2504 24.0045 47.6538 24.6674C47.0667 25.3303 46.3565 25.9174 45.5231 26.4288C44.6898 26.9496 44.0222 27.4989 43.5203 28.0765C43.0184 28.6447 42.6538 29.3218 42.4265 30.1078C42.1993 30.8938 42.0762 31.8739 42.0572 33.0481V33.2186H38.6481ZM40.4663 41.6277C39.7655 41.6277 39.1642 41.3767 38.6623 40.8748C38.1604 40.3729 37.9095 39.7716 37.9095 39.0708C37.9095 38.3701 38.1604 37.7688 38.6623 37.2669C39.1642 36.765 39.7655 36.514 40.4663 36.514C41.1671 36.514 41.7684 36.765 42.2703 37.2669C42.7722 37.7688 43.0231 38.3701 43.0231 39.0708C43.0231 39.5348 42.9048 39.961 42.668 40.3492C42.4407 40.7375 42.133 41.05 41.7447 41.2867C41.3659 41.514 40.9398 41.6277 40.4663 41.6277Z" fill="#585858"/>
</svg>
